<svg id="SvgjsSvg1039" width="288" height="288" xmlns="http://www.w3.org/2000/svg" version="1.1" xmlns:xlink="http://www.w3.org/1999/xlink" xmlns:svgjs="http://svgjs.com/svgjs"><defs id="SvgjsDefs1040"></defs><g id="SvgjsG1041"><svg xmlns="http://www.w3.org/2000/svg" enable-background="new 0 0 1000 1000" viewBox="0 0 1000 1000" width="288" height="288"><g transform="matrix(.1 0 0 -.1 0 502)" fill="#23d997" class="color000 svgShape"><path d="M6173.3 4779.9c-55.5-21.1-134-63.2-172.3-93.8-143.6-114.9-181.9-189.6-289.1-555.2l-103.4-346.5-103.4 84.2c-195.3 160.8-379.1 225.9-628 225.9-551.4 0-970.7-421.2-972.6-974.6 0-446.1 279.5-809.9 723.7-938.2 86.2-24.9 158.9-30.6 310.2-24.9 158.9 7.7 197.2 3.8 189.5-15.3-5.7-13.4-57.4-187.6-116.8-386.8-139.8-480.6-141.7-616.5-3.8-821.4 93.8-141.7 197.2-197.2 551.4-302.5 172.3-49.8 325.5-97.7 337-103.4 17.2-9.6 0-42.1-53.6-107.2-193.4-235.5-273.8-562.9-206.8-852 72.8-319.7 344.6-610.8 664.4-708.4 135.9-42.1 377.2-49.8 520.8-17.2 463.3 107.2 800.3 597.4 735.2 1068.4-9.6 74.7-15.3 136-11.5 136 3.8 0 185.7-53.6 404-116.8 358-107.2 405.9-116.8 528.4-109.1 212.5 15.3 402.1 135.9 495.9 315.9 32.5 67 375.3 1221.5 375.3 1271.3 0 19.1-21.1 57.4-46 86.2-63.2 74.7-145.5 68.9-289.1-19.2-147.4-90-237.4-113-404-103.4-231.7 15.3-411.7 132.1-526.5 344.6-61.3 111-65.1 132.1-65.1 292.9 0 199.1 36.4 298.7 155.1 430.8 327.4 361.9 892.2 266.1 1089.4-185.7 57.4-128.3 90-158.9 174.2-158.9 116.8 0 132.1 28.7 296.8 584 84.3 285.3 158.9 564.8 164.7 624.2 21.1 203-80.4 417.4-254.6 539.9-61.3 42.1-417.4 155.1-1608.3 505.5-974.6 285.3-1571.9 451.9-1644.7 457.6C6307.3 4812.4 6246 4804.8 6173.3 4779.9zM2464.6 2049.6c-325.5-74.7-624.2-308.3-779.3-610.8-59.3-118.7-111-352.3-111-509.3 0-212.5 38.3-344.6 187.6-637.6 3.8-9.6-237.4-15.3-538-15.3-608.9 0-658.6-7.7-829-124.5C339.3 113.9 264.7 37.3 226.4-16.3 103.8-198.2 100-236.5 100-1086.6v-763.9l47.9-45.9c63.2-65.1 168.5-65.1 225.9-1.9 243.2 264.2 367.6 342.7 584 371.4 453.8 61.3 859.7-239.3 928.6-689.3 80.4-524.6-407.8-1009-924.8-919-229.8 42.1-386.8 139.8-566.7 354.2-47.9 57.4-72.8 70.8-130.2 70.8-76.6 0-137.9-47.9-155.1-118.7-5.7-24.9-9.6-354.2-5.7-733.3l5.7-689.3 51.7-109.1c70.8-151.3 187.6-271.9 338.9-346.5l126.4-61.3h2010.4 2010.4l113 55.5c220.2 107.2 356.1 296.8 394.4 543.8 13.4 80.4 19.1 342.7 15.3 651l-5.7 517-46 49.8c-65.1 68.9-157 67-250.8-7.7-101.5-80.4-262.3-151.3-404-176.2-239.3-42.1-503.5 47.9-689.3 231.7-319.7 321.7-323.6 819.5-3.8 1145 275.7 283.4 762 321.7 1062.6 80.4 105.3-82.3 158.9-97.6 233.6-67 44 17.2 70.8 46 86.2 88.1 26.8 76.6 28.7 1158.4 1.9 1338.3-32.6 233.6-166.6 415.5-386.8 532.3L4666.4 267l-503.5 5.7c-277.6 3.8-501.6 11.5-497.8 19.1 72.7 137.9 149.3 321.7 166.6 402.1 49.8 237.4 3.8 568.7-105.3 771.6-137.8 250.8-390.6 465.3-649.1 551.4C2908.8 2072.5 2629.2 2087.9 2464.6 2049.6z" fill="#23d997" class="color000 svgShape"></path></g></svg></g></svg>