<svg id="SvgjsSvg1027" width="288" height="288" xmlns="http://www.w3.org/2000/svg" version="1.1" xmlns:xlink="http://www.w3.org/1999/xlink" xmlns:svgjs="http://svgjs.com/svgjs"><defs id="SvgjsDefs1028"></defs><g id="SvgjsG1029"><svg xmlns="http://www.w3.org/2000/svg" enable-background="new 0 0 1000 1000" viewBox="0 0 1000 1000" width="288" height="288"><path d="M854.4,990l15.2-35.8H45.8V130.5L10,145.6L67.2,10l57.2,135.6l-35.8-15.2v780.9h780.9l-15.2-35.8L990,932.8L854.4,990z M160.2,854.1h143.1V682.4H160.2V854.1z M517.9,854.1V525H374.8v329.1H517.9z M618,854.1h143.1l0-472.1H618V854.1z M155.4,475.5l9.6,41.8c155.5-35.9,389.5-139.8,550.7-315.8l53.6,39.9l20.4-174.3l-161.1,69.5l52.5,39.1C526.8,342.5,303.8,441.3,155.4,475.5z" fill="#23d997" class="color000 svgShape"></path></svg></g></svg>