<?xml version="1.0" standalone="no"?>
<!DOCTYPE svg PUBLIC "-//W3C//DTD SVG 1.0//EN" "http://www.w3.org/TR/2001/REC-SVG-20010904/DTD/svg10.dtd">
<svg xmlns="http://www.w3.org/2000/svg" xmlns:xlink="http://www.w3.org/1999/xlink" id="body_1" width="50" height="38">

<defs>
    <linearGradient transform="matrix(1 0 0 1 0 0)"  id="1" x1="-5.508" y1="63.455" x2="198.297" y2="133.96">
        <stop stop-color="#2298BD" offset="0%"/>
        <stop stop-color="#0ED7B5" offset="100%"/>
    </linearGradient>
</defs>

<g transform="matrix(0.08143322 0 0 0.0824295 0 0)">
	<g transform="matrix(2.3984375 0 0 2.3984375 -0 46.299988)">
        <path d="M128 0C 93.867 0 72.533 17.067 64 51.2C 76.8 34.133 91.733 27.733 108.8 32C 118.537 34.434 125.497 41.499 133.201 49.318C 145.751 62.057 160.275 76.8 192 76.8C 226.133 76.8 247.467 59.733 256 25.600002C 243.2 42.667 228.267 49.067 211.2 44.800003C 201.463 42.366005 194.50299 35.301003 186.799 27.482002C 174.249 14.743 159.725 0 128 0zM64 76.8C 29.867 76.8 8.533 93.867 0 128C 12.8 110.933 27.733 104.533005 44.8 108.8C 54.537 111.234 61.497 118.299 69.201 126.118004C 81.751 138.857 96.275 153.6 128 153.6C 162.133 153.6 183.467 136.533 192 102.40001C 179.2 119.46701 164.267 125.867004 147.2 121.600006C 137.463 119.16601 130.50299 112.101006 122.798996 104.282005C 110.249 91.543 95.725 76.8 64 76.8z" stroke="none" fill="url(#1)" />
	</g>
</g>
</svg>