<svg id="SvgjsSvg1001" width="288" height="288" xmlns="http://www.w3.org/2000/svg" version="1.1" xmlns:xlink="http://www.w3.org/1999/xlink" xmlns:svgjs="http://svgjs.com/svgjs"><defs id="SvgjsDefs1002"></defs><g id="SvgjsG1008"><svg xmlns="http://www.w3.org/2000/svg" width="288" height="288" enable-background="new 0 0 45.077 45.076" viewBox="0 0 45.077 45.076"><path d="M28.113 12.649h-5.571v-2.344c0-.463-.268-.883-.697-1.062-.43-.177-.918-.079-1.246.249l-4.749 4.75c-.234.236-.366.555-.366.888s.134.652.369.888l4.75 4.75c.328.33.811.426 1.241.249.428-.177.697-.597.697-1.062v-2.359h5.571c1.201 0 2.174-1.274 2.174-2.473C30.287 13.923 29.314 12.649 28.113 12.649zM25.165 24.322c-.328-.33-.83-.426-1.259-.25-.429.178-.719.598-.719 1.062v2.356h-5.528c-1.199 0-2.174 1.274-2.174 2.473 0 1.2.975 2.476 2.174 2.476h5.528v2.348c0 .465.289.883.719 1.062.43.176.93.078 1.259-.25l4.752-4.752c.236-.234.368-.554.368-.886 0-.333-.132-.651-.368-.888L25.165 24.322zM5.893 12.649c-.008 0-.04 0-.048 0-1.62 0-3.165.736-4.245 1.945-1.081 1.209-1.594 2.842-1.412 4.453L2.802 42.17c.179 1.594 1.481 2.906 3.066 2.906 1.587 0 2.888-1.305 3.068-2.896l2.612-23.134c.182-1.61-.331-3.242-1.412-4.451C9.056 13.385 7.513 12.649 5.893 12.649z" fill="#23d997" class="color000 svgShape"></path><circle cx="5.868" cy="5.606" r="5.606" fill="#23d997" class="color000 svgShape"></circle><path d="M43.477,14.594c-1.08-1.209-2.625-1.945-4.245-1.945c-0.008,0-0.04,0-0.048,0c-1.621,0-3.164,0.736-4.244,1.945
			c-1.081,1.209-1.595,2.842-1.412,4.453L36.14,42.17c0.181,1.594,1.48,2.906,3.067,2.906c1.585,0,2.888-1.305,3.066-2.896
			l2.613-23.134C45.071,17.435,44.558,15.803,43.477,14.594z" fill="#23d997" class="color000 svgShape"></path><circle cx="39.208" cy="5.606" r="5.606" fill="#23d997" class="color000 svgShape"></circle></svg></g></svg>