<svg id="SvgjsSvg1032" width="288" height="288" xmlns="http://www.w3.org/2000/svg" version="1.1" xmlns:xlink="http://www.w3.org/1999/xlink" xmlns:svgjs="http://svgjs.com/svgjs"><defs id="SvgjsDefs1033"></defs><g id="SvgjsG1034"><svg xmlns="http://www.w3.org/2000/svg" enable-background="new 0 0 1000 1000" viewBox="0 0 1000 1000" width="288" height="288"><g transform="matrix(.1 0 0 -.1 0 511)" fill="#23d997" class="color000 svgShape"><path d="M5182.2,4994.6c-1071.6-102.8-2075.9-707.8-2686.9-1617.3c-462.6-688-676.2-1484.8-612.9-2277.6l23.7-288.7l-518-927.3c-284.7-508.1-522-939.1-525.9-956.9c-5.9-25.7,90.9-53.4,541.7-154.2c302.5-69.2,565.4-130.5,585.2-134.4c31.6-9.9,33.6-75.1,33.6-1008.3v-996.5h790.8h790.8v-711.8V-4790h1898h1898v1103.2v1101.2l142.3,108.7c185.8,142.4,510.1,462.6,668.3,662.3c460.7,583.2,763.1,1269.3,879.8,1996.9c43.5,268.9,63.3,1190.2,31.6,1504.6c-71.2,699.9-310.4,1314.8-725.6,1866.4C7641.7,4557.7,6402,5111.3,5182.2,4994.6z M5923.6,4670.4c407.3-53.4,727.6-150.3,1087.4-330.2c978.7-486.4,1637-1417.6,1783.3-2522.8c33.6-253.1,39.5-1170.4,9.9-1437.4c-65.2-557.5-259-1134.9-533.8-1581.7c-239.2-391.5-620.8-808.6-984.6-1077.5l-201.7-148.3v-1022.2v-1024.1H5502.5H3920.8v711.8v711.7h-790.8h-790.8v964.8v964.8l-290.6,65.2c-569.4,126.5-717.7,164.1-717.7,179.9c0,9.9,203.6,381.6,452.8,826.4l452.7,808.6l-29.7,215.5c-37.6,284.7-23.7,713.7,33.6,1006.3C2582.3,3719.4,4195.6,4897.8,5923.6,4670.4z" fill="#23d997" class="color000 svgShape"></path><path d="M5344.3 4067.4V3751h158.2 158.2v316.3 316.3h-158.2-158.2V4067.4zM6402 3877.6c-108.7-191.8-146.3-272.8-130.5-290.6 25.7-31.6 235.3-142.4 245.1-130.5 4 3.9 65.2 106.8 132.5 225.4 69.2 120.6 136.4 237.3 152.2 259 25.7 41.5 19.8 47.5-110.7 122.6l-138.4 79.1L6402 3877.6zM4312.2 4061.4c-63.3-35.6-114.7-71.2-114.7-81.1 0-23.7 276.8-504.2 298.5-518 9.9-5.9 75.1 21.7 146.3 61.3l128.5 71.2-55.4 94.9c-29.7 51.4-96.9 170-152.2 264.9-53.4 94.9-106.8 172-118.6 172C4434.8 4124.7 4373.5 4097 4312.2 4061.4zM5243.5 3407c-593.1-124.6-1051.8-612.9-1146.7-1219.9-67.2-438.9 156.2-998.4 508.1-1269.3l106.8-83V706.3 577.8l-92.9-49.4C4517.9 475 4423 348.5 4403.2 237.7c-17.8-89 37.6-227.4 122.6-312.4 61.3-61.3 65.2-71.2 45.5-128.5-51.4-142.4 55.4-340.1 225.4-423.1l106.8-53.4 632.7 5.9 632.7 5.9 81 55.4c45.5 29.6 106.8 91 136.4 136.4 47.4 69.2 55.4 102.8 55.4 213.5 0 114.7 5.9 138.4 57.3 199.7 116.6 138.4 138.4 264.9 69.2 407.3-43.5 90.9-158.2 197.7-229.4 215.5-41.5 11.9-45.5 23.7-45.5 136.4V819l118.6 102.8c340.1 296.6 535.8 747.4 508.1 1168.5-37.6 583.2-444.9 1095.3-1012.3 1277.2C5712 3428.8 5433.3 3446.6 5243.5 3407zM5775.3 3088.7c486.4-114.7 808.6-514 830.4-1028.1 17.8-417.2-146.3-741.4-492.3-968.8L5977 998.9V793.3 587.7h-158.2-158.2V1078v488.3l87 55.4c225.4 142.4 290.6 419.2 150.3 630.7-92.9 140.4-255 233.3-403.3 233.3-142.3-2-332.1-132.5-413.2-286.7-104.8-197.7-4-484.4 209.6-595.1l53.4-29.7V1082 587.7h-158.2-158.2v205.6 205.6l-138.4 92.9c-239.2 158.2-385.5 363.8-454.7 634.6-102.8 397.4 2 784.9 288.7 1071.6 154.2 154.2 344 261 533.8 296.6C5405.6 3124.3 5636.9 3120.4 5775.3 3088.7zM5621.1 2129.8c25.7-25.7 39.5-65.2 39.5-118.6s-13.8-92.9-39.5-118.6c-25.7-25.7-65.2-39.5-118.6-39.5-53.4 0-92.9 13.8-118.6 39.5-25.7 25.7-39.6 65.2-39.6 118.6s13.8 92.9 39.6 118.6c25.7 25.7 65.2 39.5 118.6 39.5C5555.8 2169.4 5595.4 2155.5 5621.1 2129.8zM6283.4 192.3v-69.2h-780.9-781l-5.9 45.5c-15.8 106.8-47.5 102.8 790.8 98.9l777-5.9V192.3zM6125.2-282.2v-69.2h-622.8-622.8l-5.9 45.5c-15.8 106.8-33.6 102.8 632.7 98.9l618.8-5.9V-282.2zM3458.1 3207.3c-39.5-67.2-71.2-130.5-71.2-140.4 2-9.9 120.6-85 266.9-170l264.9-150.3 79.1 134.4 79.1 136.4-272.8 156.2-272.8 156.2L3458.1 3207.3zM7212.6 3177.7c-130.5-75.1-245.2-140.4-257-144.3-9.9-5.9 5.9-57.3 37.6-114.7 102.8-191.8 69.2-189.8 359.8-19.8 144.3 83 263 158.2 264.9 166.1 7.9 25.7-124.6 251.1-146.3 251.1C7459.8 3316.1 7343.1 3252.8 7212.6 3177.7zM3129.9 2011.2V1853h316.3 316.3v158.2 158.2h-316.3-316.3V2011.2zM7242.3 2011.2V1853h316.3H7875v158.2 158.2h-316.3-316.3V2011.2zM3649.9 1123.5c-144.3-83-261-158.2-262.9-168.1 0-9.9 31.6-73.1 71.2-140.4l73.1-122.6 270.9 156.2 272.8 156.2-75.1 128.5c-41.5 71.2-79.1 132.5-83 134.4C3914.8 1271.8 3794.2 1206.5 3649.9 1123.5zM7018.9 1151.2c-41.5-71.2-69.2-138.4-63.3-148.3 13.8-21.7 492.3-296.6 518-296.6 9.9 0 29.7 19.8 41.5 45.5 11.9 23.7 43.5 81.1 71.2 126.5l51.4 81.1-233.3 134.4c-126.5 73.2-249.1 146.3-270.9 160.1C7094 1277.7 7086.1 1269.8 7018.9 1151.2z" fill="#23d997" class="color000 svgShape"></path></g></svg></g></svg>