<svg id="SvgjsSvg1022" width="288" height="288" xmlns="http://www.w3.org/2000/svg" version="1.1" xmlns:xlink="http://www.w3.org/1999/xlink" xmlns:svgjs="http://svgjs.com/svgjs"><defs id="SvgjsDefs1023"></defs><g id="SvgjsG1024"><svg xmlns="http://www.w3.org/2000/svg" width="288" height="288" version="1.0" viewBox="0 0 1202 1280"><path d="M5880 12794 c-95 -9 -269 -45 -346 -70 -161 -54 -273 -123 -380 -237-141 -148 -216 -323 -261 -611 -22 -137 -24 -584 -4 -891 16 -251 17 -604 2
-713 -43 -302 -155 -475 -355 -548 l-59 -21 54 -31 c161 -92 491 -199 762
-248 20 -3 37 -10 37 -14 0 -10 -115 -118 -197 -184 -174 -139 -610 -360 -718
-364 -54 -2 -155 -54 -197 -100 -19 -21 -68 -61 -108 -88 -164 -110 -300 -268
-367 -426 -71 -171 -99 -327 -113 -638 -6 -124 -15 -268 -21 -320 -23 -213
-102 -548 -242 -1040 -47 -162 -106 -371 -132 -465 -53 -193 -97 -311 -160
-437 -58 -115 -116 -200 -269 -393 -306 -386 -431 -614 -833 -1515 -334 -751
-520 -1073 -830 -1439 l-29 -34 -52 14 c-43 10 -61 11 -99 0 -88 -23 -243
-142 -468 -361 -148 -143 -187 -170 -249 -170 -19 0 -20 -10 -4 -45 20 -45 46
-36 215 76 58 38 113 69 123 69 15 0 16 -5 9 -43 -21 -116 -100 -259 -300
-548 -269 -388 -344 -551 -249 -537 34 5 35 3 15 -32 -8 -14 -14 -37 -15 -52
0 -40 31 -36 69 7 36 42 41 43 41 11 0 -70 37 -36 197 177 149 198 321 417
329 417 7 0 12 9 -135 -220 -185 -287 -218 -360 -164 -360 29 0 125 110 189
218 l62 103 33 -58 c68 -121 207 -230 374 -294 170 -66 360 -97 650 -106 479
-14 1088 66 1985 262 336 74 564 127 1360 320 598 146 727 176 880 209 247 52
295 59 369 52 291 -30 796 -162 1851 -486 212 -65 495 -150 630 -190 135 -39
288 -84 340 -100 328 -99 729 -191 1110 -254 116 -19 296 -37 435 -42 525 -21
817 129 889 458 6 26 7 25 68 -38 52 -55 63 -62 71 -48 22 40 -28 137 -187
364 -105 148 -151 220 -143 220 8 0 249 -284 379 -446 71 -89 137 -164 147
-167 28 -7 51 11 51 40 0 25 1 26 20 8 33 -30 53 -13 48 43 -3 26 -8 54 -12
63 -6 14 -2 16 20 11 27 -5 27 -5 20 39 -8 52 -102 234 -190 369 -34 52 -126
180 -203 284 -136 181 -203 287 -203 319 0 8 7 20 15 27 21 18 66 -4 153 -74
37 -29 82 -60 99 -69 44 -23 98 -22 123 3 25 25 26 40 3 40 -40 0 -123 52
-203 127 -47 43 -131 119 -188 168 -255 223 -266 229 -395 231 -102 2 -96 -2
-207 129 -282 334 -450 637 -825 1490 -191 434 -294 653 -384 810 -61 106
-255 401 -442 670 -207 297 -387 765 -564 1460 -105 414 -151 684 -170 1008
-21 344 -52 519 -121 695 -89 224 -250 393 -502 526 -59 31 -130 70 -158 86
-34 20 -73 33 -120 39 -191 25 -509 190 -670 348 -92 90 -140 152 -122 157 7
2 61 11 119 20 134 21 349 75 488 122 117 41 311 123 311 133 0 3 -21 14 -46
25 -114 47 -208 177 -253 350 -46 175 -47 216 -25 1176 9 361 -9 576 -67 795
-113 435 -395 681 -869 760 -93 16 -427 28 -520 19z m1551 -4922 c216 -335
394 -839 610 -1722 198 -811 213 -860 321 -1136 125 -320 510 -1026 775 -1422
306 -457 588 -789 1216 -1434 207 -212 377 -392 377 -399 0 -35 49 -168 101
-274 32 -65 59 -120 59 -122 0 -1 -55 35 -122 80 -680 457 -1541 861 -2823
1327 l-240 87 -48 94 c-26 52 -121 236 -210 409 -287 558 -356 708 -432 935
-86 257 -124 475 -132 755 -7 266 28 615 90 889 l12 54 62 13 c92 19 147 47
212 109 106 101 148 221 158 450 8 200 -25 445 -102 745 -25 95 -27 117 -22
225 4 66 11 147 17 180 18 100 53 245 59 245 3 0 31 -39 62 -88z m-2797 -289
c22 -152 21 -170 -18 -326 -75 -298 -108 -589 -88 -785 29 -297 131 -450 321
-483 l58 -11 6 -141 c10 -218 8 -744 -3 -922 -46 -710 -193 -1270 -494 -1890
l-93 -190 -159 -44 c-181 -50 -653 -204 -855 -279 -595 -222 -1268 -527 -1901
-863 -92 -49 -170 -89 -172 -89 -6 0 47 148 65 183 7 12 68 81 138 152 1101
1134 1683 1884 2071 2670 191 387 244 546 465 1390 220 841 373 1306 548 1669
l72 149 11 -39 c6 -22 19 -89 28 -151z" transform="matrix(.1 0 0 -.1 0 1280)" fill="#23d997" class="color000 svgShape"></path></svg></g></svg>